<svg width="282" height="354" viewBox="0 0 282 354" fill="none" xmlns="http://www.w3.org/2000/svg">
<path d="M43 133C43 81.0852 85.0852 39 137 39H266V227H137C85.0852 227 43 184.915 43 133Z" fill="url(#paint0_linear_146_1046)"/>
<path d="M56 133C56 87.7127 92.7127 51 138 51H266V215H138C92.7126 215 56 178.287 56 133Z" fill="url(#paint1_linear_146_1046)"/>
<path d="M68 134C68 93.6832 100.683 61 141 61H266V207H141C100.683 207 68 174.317 68 134Z" fill="url(#paint2_linear_146_1046)"/>
<path d="M79 133.5C79 98.4299 107.43 70 142.5 70H266V197H142.5C107.43 197 79 168.57 79 133.5Z" fill="white"/>
<path d="M266 39L220.5 69.5H266V39Z" fill="white"/>
<path d="M220.5 197L266 227V197H220.5Z" fill="white"/>
<path d="M266 39L220.5 69.5H266V39Z" stroke="white"/>
<path d="M220.5 197L266 227V197H220.5Z" stroke="white"/>
<path d="M130.178 133.471C130.178 133.471 136.423 133.471 137.594 127H109.491L105.979 133.471H130.178Z" fill="#DAC0AC" stroke="#DAC0AC"/>
<path d="M133.612 162.704C141.75 167.883 151.426 170.269 161.111 169.486C170.795 168.704 179.936 164.796 187.089 158.382C194.243 151.968 199 143.412 200.611 134.066C202.222 124.721 200.593 115.118 195.983 106.775C191.373 98.433 184.044 91.8263 175.155 87.9992C166.265 84.172 156.32 83.3426 146.893 85.642C137.466 87.9413 129.093 93.2384 123.097 100.696C117.101 108.154 113.825 117.348 113.785 126.824L157.5 127L133.612 162.704Z" fill="url(#paint3_linear_146_1046)"/>
<path d="M138.307 155.691C144.845 159.851 152.618 161.769 160.398 161.141C168.178 160.514 175.523 157.377 181.271 152.226C187.02 147.075 190.845 140.203 192.143 132.696C193.441 125.189 192.138 117.474 188.439 110.77C184.74 104.065 178.857 98.7532 171.718 95.6725C164.579 92.5918 156.591 91.9179 149.016 93.7572C141.441 95.5966 134.709 99.8443 129.885 105.83C125.061 111.815 122.418 119.197 122.375 126.81L157.503 127L138.307 155.691Z" fill="url(#paint4_linear_146_1046)"/>
<path d="M142.57 149.315C147.656 152.552 153.703 154.043 159.756 153.554C165.809 153.065 171.521 150.623 175.992 146.615C180.463 142.606 183.437 137.259 184.444 131.418C185.451 125.578 184.434 119.576 181.553 114.362C178.673 109.148 174.093 105.019 168.537 102.626C162.981 100.233 156.767 99.7143 150.875 101.151C144.982 102.587 139.749 105.896 136.001 110.557C132.253 115.217 130.204 120.963 130.178 126.885L157.5 127L142.57 149.315Z" fill="url(#paint5_linear_146_1046)"/>
<path d="M146.835 142.94C150.755 145.434 155.464 146.471 160.104 145.862C164.743 145.253 169.003 143.038 172.107 139.621C175.211 136.203 176.952 131.812 177.013 127.247C177.074 122.683 175.45 118.249 172.438 114.754C169.426 111.26 165.226 108.937 160.605 108.211C155.983 107.484 151.248 108.402 147.262 110.796C143.277 113.191 140.307 116.903 138.893 121.255C137.48 125.607 137.718 130.31 139.564 134.505L157.499 127L146.835 142.94Z" fill="white"/>
<path d="M117.685 110.252L106.365 133.09H112.22L117.685 110.252Z" fill="#DAC0AC" stroke="#DAC0AC"/>
<path d="M155.16 130.045L133.693 162.4L117.689 185.238H129.399L155.16 146.793V130.045Z" fill="#A88F82" stroke="#A88F82"/>
<path d="M116.908 133.852C118.86 132.329 122.373 130.426 122.373 126.62H130.179C130.179 130.045 128.618 133.091 127.057 133.852H116.908Z" fill="#ECDFD7"/>
<path d="M28.5254 103.5C7.82364 90.9094 11.0121 75.7363 27.0254 43C27.0254 43 28.2424 43.9168 29.0254 44.5C54.5841 63.5359 40.0844 79.7232 30.0254 97C28.7146 99.2513 28.5254 103.5 28.5254 103.5Z" fill="url(#paint6_linear_146_1046)"/>
<path d="M21 175V173C39.6708 176.102 43.8094 183.623 48.5 199.5C29.6851 198.594 22.9664 193.967 21 175Z" fill="url(#paint7_linear_146_1046)"/>
<path d="M5.14374 107L5.64374 106C26.6583 113.387 30.628 127.96 31.6437 162C6.46348 150.623 -1.26985 139.888 5.14374 107Z" fill="url(#paint8_linear_146_1046)"/>
<path d="M54.9721 26H53.9721C47.4762 46.0806 51.7692 51.0565 65.4721 55C66.5223 39.071 65.8906 31.2266 54.9721 26Z" fill="url(#paint9_linear_146_1046)"/>
<path d="M94.9163 13.5L93.9163 12C80.5736 25.7889 79.7493 31.475 81.9163 40.5C96.6249 34.37 101.045 29.1893 94.9163 13.5Z" fill="url(#paint10_linear_146_1046)"/>
<path d="M110 24.0058V26.0058C138.152 26.3026 145.797 19.5581 150.5 0.0057808C123.381 -0.169211 112.702 3.53465 110 24.0058Z" fill="url(#paint11_linear_146_1046)"/>
<path d="M56.1934 212.5H21.1934C27.2443 220.898 32.9488 226.169 40.6934 226.5H78.1934C70.7024 217.379 63.2838 212.479 56.1934 212.5Z" fill="url(#paint12_linear_146_1046)"/>
<path d="M158 23.0758V25.5758C175.018 27.606 178.967 23.412 183 13.0758C168.299 12.7381 160.711 13.1189 158 23.0758Z" fill="url(#paint13_linear_146_1046)"/>
<path d="M27.7528 275.625H37.5497C39.1591 275.625 40.5184 275.086 41.6278 274.008C42.7528 272.914 43.3153 271.375 43.3153 269.391C43.3153 267.906 42.7294 266.578 41.5575 265.406C40.3856 264.219 39.0497 263.625 37.5497 263.625H23.0653V294H21.3778V261.938H37.5497C39.5184 261.938 41.2528 262.695 42.7528 264.211C44.2528 265.727 45.0028 267.453 45.0028 269.391C45.0028 271.781 44.2762 273.703 42.8231 275.156C41.37 276.594 39.6122 277.312 37.5497 277.312H27.7528V275.625ZM27.7528 279H37.5497C39.1747 279 40.6747 278.609 42.0497 277.828C43.4403 277.031 44.5575 275.891 45.4012 274.406C46.2606 272.922 46.6903 271.25 46.6903 269.391C46.6903 266.984 45.7684 264.859 43.9247 263.016C42.0966 261.172 39.9716 260.25 37.5497 260.25H19.6903V294H18.0028V258.562H37.5497C39.4403 258.562 41.2216 259.062 42.8934 260.062C44.5653 261.062 45.8934 262.398 46.8778 264.07C47.8778 265.742 48.3778 267.516 48.3778 269.391C48.3778 271.516 47.8778 273.453 46.8778 275.203C45.8778 276.938 44.5497 278.289 42.8934 279.258C41.2528 280.211 39.4716 280.688 37.5497 280.688H27.7528V279ZM27.7528 282.375H37.5497C39.2216 282.375 40.8231 282.047 42.3544 281.391C43.8856 280.719 45.2137 279.82 46.3387 278.695C47.4794 277.555 48.3856 276.18 49.0575 274.57C49.7294 272.945 50.0653 271.219 50.0653 269.391C50.0653 267.203 49.495 265.148 48.3544 263.227C47.2137 261.289 45.6747 259.75 43.7372 258.609C41.8153 257.453 39.7528 256.875 37.5497 256.875H16.3153V294H14.6278V255.188H37.5497C40.0497 255.188 42.3934 255.844 44.5809 257.156C46.7684 258.453 48.5106 260.195 49.8075 262.383C51.1044 264.57 51.7528 266.906 51.7528 269.391C51.7528 271.609 51.37 273.656 50.6044 275.531C49.8387 277.391 48.8075 278.938 47.5106 280.172C46.2137 281.406 44.7059 282.367 42.9872 283.055C41.2684 283.727 39.4559 284.062 37.5497 284.062H27.7528V282.375ZM26.4403 294H24.7528V265.312H37.5497C38.6591 265.312 39.6122 265.719 40.4091 266.531C41.2216 267.344 41.6278 268.297 41.6278 269.391C41.6278 272.422 40.2684 273.938 37.5497 273.938H27.7528V272.25H37.5497C38.2997 272.25 38.8856 272.039 39.3075 271.617C39.7294 271.195 39.9403 270.453 39.9403 269.391C39.9403 268.703 39.7059 268.133 39.2372 267.68C38.7841 267.227 38.2216 267 37.5497 267H26.4403V294ZM64.8534 294H63.1659V255.188H64.8534V294ZM61.4784 294H59.7909V255.188H61.4784V294ZM58.1034 294H56.4159V255.188H58.1034V294ZM68.2284 285.562H86.1816V287.25H68.2284V288.938H86.1816V290.625H68.2284V292.312H86.1816V294H66.5409V255.188H86.1816V256.875H68.2284V258.562H86.1816V260.25H68.2284V261.938H86.1816V263.625H68.2284V270.375H77.4394V272.062H68.2284V273.75H77.4394V275.438H68.2284V277.125H77.4394V278.812H68.2284V285.562ZM104.063 274.688H114.235C115.782 274.688 117.087 274.188 118.149 273.188C119.227 272.188 119.767 270.766 119.767 268.922C119.767 267.562 119.204 266.344 118.079 265.266C116.954 264.172 115.673 263.625 114.235 263.625H99.7509V294H98.0634V261.938H114.235C116.142 261.938 117.821 262.648 119.274 264.07C120.727 265.477 121.454 267.094 121.454 268.922C121.454 271.172 120.751 272.977 119.345 274.336C117.938 275.695 116.235 276.375 114.235 276.375H104.063V274.688ZM104.063 278.062H114.235C116.673 278.062 118.767 277.211 120.517 275.508C122.267 273.789 123.142 271.594 123.142 268.922C123.142 266.625 122.243 264.609 120.446 262.875C118.665 261.125 116.595 260.25 114.235 260.25H96.3759V294H94.6884V258.562H114.235C116.095 258.562 117.837 259.039 119.462 259.992C121.102 260.945 122.407 262.227 123.376 263.836C124.345 265.43 124.829 267.125 124.829 268.922C124.829 272 123.782 274.578 121.688 276.656C119.61 278.719 117.126 279.75 114.235 279.75H104.063V278.062ZM104.063 281.438H114.235C116.423 281.438 118.454 280.898 120.329 279.82C122.204 278.742 123.704 277.242 124.829 275.32C125.954 273.383 126.517 271.25 126.517 268.922C126.517 266.812 125.954 264.836 124.829 262.992C123.72 261.133 122.22 259.648 120.329 258.539C118.438 257.43 116.407 256.875 114.235 256.875H93.0009V294H91.3134V255.188H114.235C116.688 255.188 118.993 255.82 121.149 257.086C123.306 258.336 125.017 260.023 126.282 262.148C127.563 264.258 128.204 266.516 128.204 268.922C128.204 271.703 127.602 274.148 126.399 276.258C125.212 278.367 123.595 280.016 121.548 281.203L125.907 294H124.126L119.954 282C119.329 282.25 118.852 282.422 118.524 282.516L122.438 294H120.657L116.837 282.914C116.696 282.945 116.196 283 115.337 283.078L118.97 294H117.188L113.602 283.125H112.079L115.501 294H113.72L110.274 283.125H104.063V281.438ZM103.126 294H101.438V265.312H114.235C115.282 265.312 116.181 265.672 116.931 266.391C117.696 267.094 118.079 267.938 118.079 268.922C118.079 271.641 116.798 273 114.235 273H104.063V271.312H114.235C114.907 271.312 115.431 271.141 115.806 270.797C116.196 270.438 116.392 269.812 116.392 268.922C116.392 268.375 116.181 267.922 115.759 267.562C115.352 267.188 114.845 267 114.235 267H103.126V294ZM144.586 294H142.898V255.188H161.578V256.875H144.586V258.562H161.578V260.25H144.586V261.938H161.578V263.625H144.586V272.062H160.781V273.75H144.586V275.438H160.781V277.125H144.586V278.812H160.781V280.5H144.586V294ZM141.211 294H139.523V255.188H141.211V294ZM137.836 294H136.148V255.188H137.836V294ZM134.461 294H132.773V255.188H134.461V294ZM174.983 294H173.296V255.188H174.983V294ZM171.608 294H169.921V255.188H171.608V294ZM168.233 294H166.546V255.188H168.233V294ZM178.358 285.562H196.312V287.25H178.358V288.938H196.312V290.625H178.358V292.312H196.312V294H176.671V255.188H196.312V256.875H178.358V258.562H196.312V260.25H178.358V261.938H196.312V263.625H178.358V270.375H187.569V272.062H178.358V273.75H187.569V275.438H178.358V277.125H187.569V278.812H178.358V285.562ZM230.74 268.453L229.357 269.367C228.514 268.117 227.412 267.133 226.053 266.414C224.709 265.68 223.248 265.312 221.67 265.312C219.107 265.312 216.92 266.219 215.107 268.031C213.295 269.844 212.389 272.031 212.389 274.594C212.389 277.156 213.295 279.344 215.107 281.156C216.92 282.969 219.107 283.875 221.67 283.875C223.248 283.875 224.709 283.508 226.053 282.773C227.412 282.039 228.514 281.047 229.357 279.797L230.717 280.781C229.717 282.25 228.42 283.414 226.826 284.273C225.232 285.133 223.514 285.562 221.67 285.562C220.186 285.562 218.764 285.273 217.404 284.695C216.061 284.117 214.897 283.336 213.912 282.352C212.928 281.367 212.147 280.203 211.568 278.859C210.99 277.5 210.701 276.078 210.701 274.594C210.701 273.109 210.99 271.695 211.568 270.352C212.147 268.992 212.928 267.82 213.912 266.836C214.897 265.852 216.061 265.07 217.404 264.492C218.764 263.914 220.186 263.625 221.67 263.625C223.529 263.625 225.256 264.062 226.85 264.938C228.443 265.797 229.74 266.969 230.74 268.453ZM233.529 266.531L232.123 267.445C230.967 265.758 229.467 264.422 227.623 263.438C225.795 262.438 223.811 261.938 221.67 261.938C219.373 261.938 217.256 262.508 215.318 263.648C213.381 264.773 211.842 266.305 210.701 268.242C209.576 270.18 209.014 272.297 209.014 274.594C209.014 276.891 209.576 279.008 210.701 280.945C211.842 282.883 213.381 284.422 215.318 285.562C217.256 286.688 219.373 287.25 221.67 287.25C223.811 287.25 225.803 286.75 227.647 285.75C229.49 284.75 230.99 283.398 232.147 281.695L233.529 282.656C232.217 284.594 230.514 286.125 228.42 287.25C226.342 288.375 224.092 288.938 221.67 288.938C219.076 288.938 216.678 288.297 214.475 287.016C212.272 285.734 210.529 283.992 209.248 281.789C207.967 279.586 207.326 277.188 207.326 274.594C207.326 272 207.967 269.602 209.248 267.398C210.529 265.195 212.272 263.453 214.475 262.172C216.678 260.891 219.076 260.25 221.67 260.25C224.092 260.25 226.342 260.812 228.42 261.938C230.514 263.062 232.217 264.594 233.529 266.531ZM236.342 264.656L234.936 265.57C233.467 263.414 231.561 261.711 229.217 260.461C226.889 259.195 224.373 258.562 221.67 258.562C219.498 258.562 217.42 258.984 215.436 259.828C213.451 260.672 211.74 261.812 210.303 263.25C208.881 264.672 207.748 266.375 206.904 268.359C206.061 270.344 205.639 272.422 205.639 274.594C205.639 276.766 206.061 278.844 206.904 280.828C207.748 282.812 208.881 284.523 210.303 285.961C211.74 287.383 213.451 288.516 215.436 289.359C217.42 290.203 219.498 290.625 221.67 290.625C224.389 290.625 226.912 289.992 229.24 288.727C231.568 287.461 233.467 285.75 234.936 283.594L236.295 284.602C234.67 286.977 232.568 288.859 229.99 290.25C227.428 291.625 224.654 292.312 221.67 292.312C218.467 292.312 215.506 291.523 212.787 289.945C210.068 288.352 207.912 286.195 206.318 283.477C204.74 280.758 203.951 277.797 203.951 274.594C203.951 271.391 204.74 268.43 206.318 265.711C207.912 262.992 210.068 260.844 212.787 259.266C215.506 257.672 218.467 256.875 221.67 256.875C224.67 256.875 227.459 257.578 230.037 258.984C232.615 260.375 234.717 262.266 236.342 264.656ZM239.107 262.734L237.701 263.648C235.92 261.039 233.615 258.977 230.787 257.461C227.975 255.945 224.936 255.188 221.67 255.188C219.045 255.188 216.529 255.703 214.123 256.734C211.732 257.75 209.67 259.125 207.936 260.859C206.201 262.594 204.818 264.664 203.787 267.07C202.772 269.461 202.264 271.969 202.264 274.594C202.264 277.219 202.772 279.734 203.787 282.141C204.818 284.531 206.201 286.594 207.936 288.328C209.67 290.062 211.732 291.445 214.123 292.477C216.529 293.492 219.045 294 221.67 294C224.936 294 227.982 293.234 230.811 291.703C233.639 290.172 235.943 288.102 237.725 285.492L239.084 286.523C237.147 289.336 234.647 291.57 231.584 293.227C228.522 294.867 225.217 295.688 221.67 295.688C218.811 295.688 216.076 295.125 213.467 294C210.873 292.891 208.631 291.398 206.74 289.523C204.865 287.633 203.365 285.391 202.24 282.797C201.131 280.188 200.576 277.453 200.576 274.594C200.576 271.734 201.131 269.008 202.24 266.414C203.365 263.805 204.865 261.562 206.74 259.688C208.631 257.797 210.873 256.297 213.467 255.188C216.076 254.062 218.811 253.5 221.67 253.5C225.232 253.5 228.545 254.328 231.607 255.984C234.67 257.641 237.17 259.891 239.107 262.734ZM242.575 256.875V255.188H267.888V256.875H242.575ZM242.575 260.25V258.562H267.888V260.25H242.575ZM242.575 263.625V261.938H267.888V263.625H261.138V294H259.45V263.625H257.763V294H256.075V263.625H254.388V294H252.7V263.625H251.013V294H249.325V263.625H242.575Z" fill="#826862"/>
<path d="M82.4475 332.781C80.4683 333.802 78.4058 334.312 76.26 334.312C73.2392 334.312 70.8017 333.344 68.9475 331.406C67.2183 329.573 66.3538 327.312 66.3538 324.625C66.3538 322.354 67.01 320.344 68.3225 318.594C70.1767 316.156 72.8538 314.938 76.3538 314.938C78.5413 314.938 80.5413 315.427 82.3538 316.406C82.3329 316.073 82.3433 315.802 82.385 315.594C82.4892 315.26 82.8121 315.094 83.3538 315.094L83.4475 321.25H82.3538C82.0204 320.042 81.635 319.052 81.1975 318.281C80.26 316.677 78.8121 315.875 76.8538 315.875C73.1454 315.896 71.2808 318.76 71.26 324.469C71.26 326.219 71.385 327.688 71.635 328.875C72.3017 331.875 73.9579 333.375 76.6038 333.375C77.2704 333.375 77.8746 333.302 78.4163 333.156C80.3746 332.615 81.7392 330.896 82.51 328H83.5413V334.156C83.3121 334.156 83.1246 334.135 82.9788 334.094C82.6038 334.01 82.4267 333.573 82.4475 332.781ZM94.8063 334H85.4313V333.156H87.9313V316.094H85.4313V315.25H95.8688C97.5354 315.25 98.9521 315.646 100.119 316.438C101.494 317.375 102.181 318.615 102.181 320.156C102.181 320.615 102.119 321.062 101.994 321.5C101.494 323.271 100.15 324.458 97.9625 325.062L102.775 333.188H103.181C103.285 333.188 103.39 333.198 103.494 333.219C103.827 333.281 103.994 333.542 103.994 334L98.4938 334.031L93.8375 325.438H92.3063V333.156H94.8063V334ZM93.9938 316.094H92.3063V324.5H94.2438C94.8688 324.5 95.4208 324.344 95.9 324.031C96.9833 323.344 97.525 322.104 97.525 320.312C97.525 319.729 97.4521 319.167 97.3063 318.625C96.8063 316.938 95.7021 316.094 93.9938 316.094ZM121.009 321.25H120.103L119.415 319.094C119.353 318.906 119.28 318.719 119.196 318.531C118.55 316.906 117.373 316.094 115.665 316.094H112.134V323.875H118.134V324.812H112.134V333.156H115.665C116.061 333.156 116.436 333.115 116.79 333.031C117.978 332.719 118.842 331.76 119.384 330.156L120.103 328H121.009L120.884 334H105.259V333.156H107.759V316.094H105.259V315.25H120.884L121.009 321.25ZM143.274 334H134.899V333.156H137.118L134.774 327.156H128.555L126.305 333.156H128.055C128.18 333.156 128.295 333.167 128.399 333.188C128.67 333.229 128.805 333.5 128.805 334H123.055V333.156H125.055L131.899 315.25H134.211L141.586 333.156H142.524C142.649 333.156 142.763 333.167 142.868 333.188C143.138 333.229 143.274 333.5 143.274 334ZM134.399 326.219L131.618 319.031L128.93 326.219H134.399ZM157.758 334H147.445V333.156H150.414V316.094H149.883C149.174 316.094 148.57 316.229 148.07 316.5C147.341 316.917 146.747 317.792 146.289 319.125L145.32 321.938H144.383L144.508 315.25H160.695L160.82 321.938H159.883L158.914 319.125C158.768 318.729 158.633 318.385 158.508 318.094C157.883 316.76 156.82 316.094 155.32 316.094H154.789V333.156H156.914C157.351 333.198 157.633 333.479 157.758 334ZM171.929 334H162.554V333.156H165.054V316.094H162.554V315.25H171.929V316.094H169.429V333.156H171.085C171.522 333.198 171.804 333.479 171.929 334ZM184.288 314.938C186.642 314.938 188.694 315.573 190.444 316.844C192.881 318.635 194.1 321.25 194.1 324.688C194.1 327.521 193.131 329.854 191.194 331.688C189.298 333.438 186.965 334.312 184.194 334.312C181.756 334.312 179.631 333.615 177.819 332.219C175.465 330.385 174.288 327.833 174.288 324.562C174.288 321.708 175.277 319.375 177.256 317.562C179.173 315.812 181.517 314.938 184.288 314.938ZM184.288 333.406C185.246 333.406 186.048 333.198 186.694 332.781C188.36 331.719 189.194 328.969 189.194 324.531C189.194 322.656 189.038 321.083 188.725 319.812C188.058 317.167 186.548 315.844 184.194 315.844C183.485 315.844 182.85 315.969 182.288 316.219C180.225 317.094 179.194 319.917 179.194 324.688C179.194 327.188 179.454 329.125 179.975 330.5C180.725 332.438 182.163 333.406 184.288 333.406ZM210.115 316.094V315.25H216.427V316.094H213.927V333.844L212.146 334.156L200.115 320.125V333.156H201.927C202.365 333.198 202.646 333.479 202.771 334H196.302V333.156H198.802V316.094H196.302V315.25H201.584L212.615 328.188V316.094H210.115Z" fill="#65504B"/>
<defs>
<linearGradient id="paint0_linear_146_1046" x1="154.5" y1="39" x2="154.5" y2="227" gradientUnits="userSpaceOnUse">
<stop stop-color="#E6CBB6"/>
<stop offset="1" stop-color="#7F6660"/>
</linearGradient>
<linearGradient id="paint1_linear_146_1046" x1="161" y1="51" x2="161" y2="215" gradientUnits="userSpaceOnUse">
<stop stop-color="#F2E6DF"/>
<stop offset="1" stop-color="#B79A84"/>
</linearGradient>
<linearGradient id="paint2_linear_146_1046" x1="167" y1="61" x2="167" y2="207" gradientUnits="userSpaceOnUse">
<stop stop-color="#E6CBB6"/>
<stop offset="1" stop-color="#7F6660"/>
</linearGradient>
<linearGradient id="paint3_linear_146_1046" x1="194.112" y1="150.296" x2="121.997" y2="102.047" gradientUnits="userSpaceOnUse">
<stop stop-color="#816861"/>
<stop offset="1" stop-color="#E3C9B4"/>
</linearGradient>
<linearGradient id="paint4_linear_146_1046" x1="186.923" y1="145.72" x2="128.974" y2="106.948" gradientUnits="userSpaceOnUse">
<stop stop-color="#B89B86"/>
<stop offset="1" stop-color="#F0E4DD"/>
</linearGradient>
<linearGradient id="paint5_linear_146_1046" x1="180.382" y1="141.56" x2="135.311" y2="111.404" gradientUnits="userSpaceOnUse">
<stop stop-color="#816861"/>
<stop offset="1" stop-color="#E3C9B4"/>
</linearGradient>
<linearGradient id="paint6_linear_146_1046" x1="14" y1="73.25" x2="40.832" y2="78" gradientUnits="userSpaceOnUse">
<stop stop-color="#F1E4DD"/>
<stop offset="1" stop-color="#B89B85"/>
</linearGradient>
<linearGradient id="paint7_linear_146_1046" x1="29" y1="192" x2="43" y2="186" gradientUnits="userSpaceOnUse">
<stop stop-color="#E4CAB5"/>
<stop offset="1" stop-color="#806761"/>
</linearGradient>
<linearGradient id="paint8_linear_146_1046" x1="12" y1="140" x2="29.5" y2="137.5" gradientUnits="userSpaceOnUse">
<stop stop-color="#E3C8B4"/>
<stop offset="1" stop-color="#806761"/>
</linearGradient>
<linearGradient id="paint9_linear_146_1046" x1="53.5" y1="40" x2="66" y2="42.5" gradientUnits="userSpaceOnUse">
<stop stop-color="#E4C9B4"/>
<stop offset="1" stop-color="#826962"/>
</linearGradient>
<linearGradient id="paint10_linear_146_1046" x1="83.5" y1="24" x2="98" y2="30.5" gradientUnits="userSpaceOnUse">
<stop stop-color="#E2C7B2"/>
<stop offset="1" stop-color="#826962"/>
</linearGradient>
<linearGradient id="paint11_linear_146_1046" x1="125" y1="3" x2="136" y2="21.5" gradientUnits="userSpaceOnUse">
<stop stop-color="#F1E4DD"/>
<stop offset="1" stop-color="#B89C86"/>
</linearGradient>
<linearGradient id="paint12_linear_146_1046" x1="21.1934" y1="219.5" x2="78.1934" y2="219.5" gradientUnits="userSpaceOnUse">
<stop stop-color="#B59882"/>
<stop offset="1" stop-color="#816861"/>
</linearGradient>
<linearGradient id="paint13_linear_146_1046" x1="168" y1="13" x2="173" y2="24" gradientUnits="userSpaceOnUse">
<stop stop-color="#F1E4DD"/>
<stop offset="1" stop-color="#B89B86"/>
</linearGradient>
</defs>
</svg>
